<mxfile host="app.diagrams.net" modified="2024-06-26T16:32:56.661Z" agent="Mozilla/5.0 (Macintosh; Intel Mac OS X 10_15_7) AppleWebKit/537.36 (KHTML, like Gecko) Chrome/126.0.0.0 Safari/537.36" etag="6HktZoWxk1vpa4RpLolF" version="24.6.3" type="github">
  <diagram id="C5RBs43oDa-KdzZeNtuy" name="Page-1">
    <mxGraphModel dx="723" dy="646" grid="1" gridSize="10" guides="1" tooltips="1" connect="1" arrows="1" fold="1" page="1" pageScale="1" pageWidth="827" pageHeight="1169" math="0" shadow="0">
      <root>
        <mxCell id="WIyWlLk6GJQsqaUBKTNV-0" />
        <mxCell id="WIyWlLk6GJQsqaUBKTNV-1" parent="WIyWlLk6GJQsqaUBKTNV-0" />
        <mxCell id="uTEP4F4Mro2vo7fxBwQ3-2" value="" style="edgeStyle=none;curved=1;rounded=0;orthogonalLoop=1;jettySize=auto;html=1;fontSize=12;startSize=8;endSize=8;" edge="1" parent="WIyWlLk6GJQsqaUBKTNV-1" source="uTEP4F4Mro2vo7fxBwQ3-0" target="uTEP4F4Mro2vo7fxBwQ3-1">
          <mxGeometry relative="1" as="geometry" />
        </mxCell>
        <mxCell id="uTEP4F4Mro2vo7fxBwQ3-0" value="Start" style="strokeWidth=2;html=1;shape=mxgraph.flowchart.start_1;whiteSpace=wrap;" vertex="1" parent="WIyWlLk6GJQsqaUBKTNV-1">
          <mxGeometry x="340" y="30" width="100" height="60" as="geometry" />
        </mxCell>
        <mxCell id="uTEP4F4Mro2vo7fxBwQ3-4" value="" style="edgeStyle=none;curved=1;rounded=0;orthogonalLoop=1;jettySize=auto;html=1;fontSize=12;startSize=8;endSize=8;" edge="1" parent="WIyWlLk6GJQsqaUBKTNV-1" source="uTEP4F4Mro2vo7fxBwQ3-1" target="uTEP4F4Mro2vo7fxBwQ3-3">
          <mxGeometry relative="1" as="geometry" />
        </mxCell>
        <mxCell id="uTEP4F4Mro2vo7fxBwQ3-1" value="INPUT: number" style="shape=parallelogram;perimeter=parallelogramPerimeter;whiteSpace=wrap;html=1;fixedSize=1;strokeWidth=2;" vertex="1" parent="WIyWlLk6GJQsqaUBKTNV-1">
          <mxGeometry x="330" y="210" width="120" height="60" as="geometry" />
        </mxCell>
        <mxCell id="uTEP4F4Mro2vo7fxBwQ3-6" value="" style="edgeStyle=none;curved=1;rounded=0;orthogonalLoop=1;jettySize=auto;html=1;fontSize=12;startSize=8;endSize=8;" edge="1" parent="WIyWlLk6GJQsqaUBKTNV-1" source="uTEP4F4Mro2vo7fxBwQ3-3" target="uTEP4F4Mro2vo7fxBwQ3-5">
          <mxGeometry relative="1" as="geometry" />
        </mxCell>
        <mxCell id="uTEP4F4Mro2vo7fxBwQ3-10" value="" style="edgeStyle=none;curved=1;rounded=0;orthogonalLoop=1;jettySize=auto;html=1;fontSize=12;startSize=8;endSize=8;" edge="1" parent="WIyWlLk6GJQsqaUBKTNV-1" source="uTEP4F4Mro2vo7fxBwQ3-3" target="uTEP4F4Mro2vo7fxBwQ3-9">
          <mxGeometry relative="1" as="geometry" />
        </mxCell>
        <mxCell id="uTEP4F4Mro2vo7fxBwQ3-3" value="number % 2 ==0" style="rhombus;whiteSpace=wrap;html=1;strokeWidth=2;" vertex="1" parent="WIyWlLk6GJQsqaUBKTNV-1">
          <mxGeometry x="290" y="350" width="190" height="130" as="geometry" />
        </mxCell>
        <mxCell id="uTEP4F4Mro2vo7fxBwQ3-5" value="OUTPUT: &quot;It&#39;s even!&quot;" style="shape=parallelogram;perimeter=parallelogramPerimeter;whiteSpace=wrap;html=1;fixedSize=1;strokeWidth=2;" vertex="1" parent="WIyWlLk6GJQsqaUBKTNV-1">
          <mxGeometry x="635" y="385" width="145" height="60" as="geometry" />
        </mxCell>
        <mxCell id="uTEP4F4Mro2vo7fxBwQ3-8" value="True" style="text;strokeColor=none;fillColor=none;html=1;align=center;verticalAlign=middle;whiteSpace=wrap;rounded=0;fontSize=16;" vertex="1" parent="WIyWlLk6GJQsqaUBKTNV-1">
          <mxGeometry x="530" y="380" width="60" height="30" as="geometry" />
        </mxCell>
        <mxCell id="uTEP4F4Mro2vo7fxBwQ3-13" value="" style="edgeStyle=none;curved=1;rounded=0;orthogonalLoop=1;jettySize=auto;html=1;fontSize=12;startSize=8;endSize=8;" edge="1" parent="WIyWlLk6GJQsqaUBKTNV-1" source="uTEP4F4Mro2vo7fxBwQ3-9" target="uTEP4F4Mro2vo7fxBwQ3-12">
          <mxGeometry relative="1" as="geometry" />
        </mxCell>
        <mxCell id="uTEP4F4Mro2vo7fxBwQ3-9" value="OUTPUT: &quot;It&#39;s odd!&quot;" style="shape=parallelogram;perimeter=parallelogramPerimeter;whiteSpace=wrap;html=1;fixedSize=1;strokeWidth=2;" vertex="1" parent="WIyWlLk6GJQsqaUBKTNV-1">
          <mxGeometry x="300" y="635" width="160" height="60" as="geometry" />
        </mxCell>
        <mxCell id="uTEP4F4Mro2vo7fxBwQ3-11" value="False" style="text;strokeColor=none;fillColor=none;html=1;align=center;verticalAlign=middle;whiteSpace=wrap;rounded=0;fontSize=16;" vertex="1" parent="WIyWlLk6GJQsqaUBKTNV-1">
          <mxGeometry x="380" y="530" width="60" height="30" as="geometry" />
        </mxCell>
        <mxCell id="uTEP4F4Mro2vo7fxBwQ3-12" value="Exit" style="strokeWidth=2;html=1;shape=mxgraph.flowchart.start_1;whiteSpace=wrap;" vertex="1" parent="WIyWlLk6GJQsqaUBKTNV-1">
          <mxGeometry x="600" y="635" width="100" height="60" as="geometry" />
        </mxCell>
      </root>
    </mxGraphModel>
  </diagram>
</mxfile>
